<?xml version="1.0" standalone="no"?>
<!DOCTYPE svg PUBLIC "-//W3C//DTD SVG 20010904//EN"
 "http://www.w3.org/TR/2001/REC-SVG-20010904/DTD/svg10.dtd">
<svg version="1.0" xmlns="http://www.w3.org/2000/svg"
 width="512.000000pt" height="512.000000pt" viewBox="0 0 512.000000 512.000000"
 preserveAspectRatio="xMidYMid meet">
<metadata>
Created by potrace 1.14, written by Peter Selinger 2001-2017
</metadata>
<g transform="translate(0.000000,512.000000) scale(0.100000,-0.100000)"
fill="#000000" stroke="none">
<path d="M268 4899 c-102 -15 -187 -80 -236 -179 l-27 -55 -3 -2101 c-2 -2311
-7 -2148 59 -2245 39 -56 118 -107 192 -123 37 -9 321 -12 1018 -11 880 0 968
2 991 17 57 38 60 121 5 162 -28 21 -29 21 -1005 22 -941 0 -978 1 -1006 19
-59 39 -56 -59 -56 1713 l0 1629 2360 0 2360 0 0 -1636 c0 -1575 -1 -1637 -19
-1664 -43 -65 28 -61 -984 -61 l-919 -1 -29 -33 c-39 -44 -39 -90 0 -134 l29
-32 903 -1 c497 0 926 3 953 8 104 18 194 88 240 186 l21 46 0 2120 0 2120
-21 46 c-26 55 -76 114 -124 144 -83 52 54 49 -2385 50 -1249 0 -2291 -3
-2317 -6z m4596 -214 c53 -36 56 -55 56 -410 l0 -325 -32 0 c-56 -1 -4662 -1
-4675 0 -19 0 -18 638 1 683 15 36 49 63 87 69 13 1 1039 3 2279 3 2209 -1
2256 -1 2284 -20z"/>
<path d="M643 4418 c-53 -14 -85 -85 -61 -133 44 -88 172 -67 185 31 4 33 1
45 -21 71 -29 35 -57 43 -103 31z"/>
<path d="M1148 4422 c-76 -10 -104 -107 -48 -164 28 -27 36 -30 77 -25 74 8
108 69 76 135 -20 39 -60 60 -105 54z"/>
<path d="M1617 4414 c-28 -15 -54 -58 -52 -84 1 -8 3 -23 3 -33 1 -10 14 -29
28 -42 62 -57 164 -12 164 72 0 70 -81 119 -143 87z"/>
<path d="M2495 4422 c-86 -18 -108 -125 -37 -177 26 -19 46 -20 1002 -20 536
-1 989 3 1005 7 76 20 100 110 44 164 l-30 29 -982 0 c-540 1 -991 -1 -1002
-3z"/>
<path d="M1063 2962 c-26 -4 -72 -48 -74 -71 -1 -9 -2 -256 -3 -549 -2 -575
-2 -575 51 -603 28 -15 365 -21 442 -7 271 49 391 372 217 584 -25 29 -25 31
-8 50 113 123 119 329 12 464 -37 47 -120 102 -180 120 -41 12 -396 22 -457
12z m417 -210 c144 -63 126 -267 -27 -300 -30 -6 -213 -9 -258 -3 -7 1 -10 56
-9 154 1 83 2 155 3 158 2 10 265 2 291 -9z m0 -520 c54 -22 100 -89 100 -147
0 -58 -46 -125 -100 -147 -26 -11 -275 -18 -288 -8 -10 7 -11 303 0 310 14 10
262 3 288 -8z"/>
<path d="M2044 2962 c-12 -1 -34 -16 -49 -32 l-28 -29 -1 -418 c-1 -230 2
-442 6 -471 19 -153 157 -280 307 -283 62 -2 98 21 111 72 19 68 -15 108 -110
128 -48 11 -109 65 -111 98 0 10 -1 209 -2 443 -2 397 -3 427 -21 453 -10 15
-19 27 -20 27 0 0 -15 4 -31 8 -17 4 -40 6 -51 4z"/>
<path d="M2789 2435 c-224 -68 -331 -327 -216 -525 66 -114 180 -181 309 -182
79 0 151 22 210 64 61 44 86 74 120 145 45 94 44 225 -2 313 -77 149 -265 232
-421 185z m184 -214 c21 -13 45 -40 58 -67 20 -42 21 -51 10 -98 -18 -80 -76
-128 -156 -128 -132 0 -206 149 -126 252 56 72 139 88 214 41z"/>
<path d="M3695 2440 c-154 -35 -271 -172 -280 -329 -12 -212 149 -382 363
-383 40 0 83 6 106 16 21 9 41 14 45 11 13 -7 5 -189 -9 -215 -30 -58 -76 -89
-138 -93 -83 -6 -157 60 -169 153 -11 83 -71 124 -140 95 -51 -21 -68 -71 -53
-149 48 -242 297 -367 516 -260 70 34 146 117 175 192 22 55 22 70 23 372 l0
315 -26 57 c-37 79 -71 121 -131 161 -85 56 -191 78 -282 57z m138 -204 c86
-39 123 -123 90 -206 -53 -134 -227 -140 -293 -10 -38 75 -4 171 73 209 49 25
86 26 130 7z"/>
<path d="M1071 942 c-94 -14 -117 -139 -33 -183 37 -21 3007 -21 3044 0 65 34
67 131 5 171 -19 12 -246 14 -1507 15 -817 0 -1496 -2 -1509 -3z"/>
<path d="M2592 375 c-44 -19 -66 -57 -59 -101 11 -67 65 -100 127 -80 41 13
76 72 66 110 -15 60 -78 94 -134 71z"/>
</g>
</svg>
